<svg xmlns="http://www.w3.org/2000/svg" height="1024" preserveAspectRatio="none" style="display: block;" version="1.1" viewBox="0 0 2048 2048" width="1024">
<path d="M 0 0 L 2048 0 L 2048 2048 L 0 2048 L 0 0 z" fill="rgb(255,255,255)" transform="translate(0,0)"></path>
<path d="M 1025.06 389.347 L 1112.59 444.816 C 1101.49 445.228 1089.27 445.942 1078.26 445.903 C 1080.46 460.062 1083.3 485.342 1086.55 498.176 C 1091.91 497.997 1097.65 497.905 1102.97 497.616 C 1103.33 509.421 1103.78 521.223 1104.33 533.021 L 1090.03 533.123 C 1090.45 536.483 1091.44 542.742 1091.56 545.89 L 1092.34 548.853 L 1094.71 562.447 C 1118 566.483 1168.3 576.088 1190.01 585.789 C 1314.96 629.755 1417.31 721.607 1474.48 841.099 C 1532.46 962.475 1539.58 1101.98 1494.25 1228.63 C 1487.37 1248.04 1472.95 1283.84 1461.59 1301.1 C 1460.35 1306.15 1464.65 1311.63 1467.51 1316.35 C 1467.87 1317.04 1468.23 1317.73 1468.6 1318.42 C 1482.86 1347.26 1499.73 1377.49 1515.39 1405.72 C 1531.37 1434.54 1548.23 1472.76 1569.85 1496.74 C 1586.82 1515.69 1608.4 1529.94 1632.5 1538.09 C 1655.95 1546 1672.47 1548.03 1696.59 1548.46 L 1696.64 1567.86 C 1630.51 1567.32 1564.38 1567.21 1498.25 1567.53 L 1260.68 1567.29 L 1261.03 1551.35 C 1300.32 1549.8 1341.78 1537.15 1369.13 1507.63 C 1362 1493.71 1354.67 1479.9 1347.16 1466.18 L 1346.21 1465.06 C 1344.83 1461.4 1341.02 1454.36 1338.25 1451.54 C 1235.09 1535.58 1102.69 1575.04 970.351 1561.18 C 892.954 1552.3 818.738 1525.31 753.72 1482.4 C 743.522 1475.76 722.816 1461.83 714.902 1453.28 C 712.856 1451.93 712.197 1451.51 709.982 1450.47 C 706.655 1454.11 682.818 1500.72 679.745 1507.35 C 708.53 1538.45 748.211 1549.33 789.469 1551.07 L 789.837 1567.22 L 351.306 1567.89 L 351.574 1548.14 C 467.509 1548.18 494.859 1480.92 540.926 1391.2 C 551.699 1370.22 573.016 1338.88 579.117 1317.83 L 580.556 1316.93 L 588.33 1302.61 C 586.937 1299.89 585.638 1296.99 584.342 1294.2 C 582.403 1292.43 574.717 1276.12 572.946 1272.34 C 547.954 1219.81 532.732 1163.16 528.024 1105.18 C 515.447 972.592 556.003 840.433 640.787 737.724 C 706.04 660.037 793.018 603.621 890.559 575.714 C 906.878 571.036 934.448 564.016 951.285 562.568 L 953.881 561.417 C 956.104 557.493 956.397 552.608 957.088 548.024 L 957.887 545.417 C 958.325 541.242 958.795 538.132 959.57 534.004 L 944.588 534.055 C 944.899 522.724 944.952 508.873 945.789 497.754 L 963.554 497.877 C 967.516 481.252 970.799 460.787 975.079 445.356 C 963.092 445.138 950.275 445.127 938.359 444.625 C 967.614 426.759 996.521 408.33 1025.06 389.347 z" fill="rgb(249,208,18)" transform="translate(0,0)"></path>
<path d="M 713.563 1073 C 739.907 1127.53 787.543 1177.38 839.206 1208.62 L 710.598 1448.36 C 712.127 1449.84 714.341 1451.51 714.902 1453.28 C 712.856 1451.93 712.197 1451.51 709.982 1450.47 C 706.655 1454.11 682.818 1500.72 679.745 1507.35 C 708.53 1538.45 748.211 1549.33 789.469 1551.07 L 789.837 1567.22 L 351.306 1567.89 L 351.574 1548.14 C 467.509 1548.18 494.859 1480.92 540.926 1391.2 C 551.699 1370.22 573.016 1338.88 579.117 1317.83 L 580.556 1316.93 L 588.33 1302.61 C 586.937 1299.89 585.638 1296.99 584.342 1294.2 C 586.991 1297.22 586.967 1298.4 589.902 1298.68 C 593.228 1293.91 598.881 1282.74 601.998 1277.05 L 624.497 1235.93 L 681.314 1131.42 C 691.448 1112.84 702.8 1090.91 713.563 1073 z" fill="rgb(38,35,34)" transform="translate(0,0)"></path>
<path d="M 1333.18 1070.18 C 1363.49 1124.03 1393.16 1180.25 1423.02 1234.6 C 1430.11 1247.28 1437.12 1260.02 1444.04 1272.8 C 1448.84 1281.77 1453.61 1291.32 1458.94 1299.9 C 1459.73 1301.17 1459.47 1300.66 1461.59 1301.1 C 1460.35 1306.15 1464.65 1311.63 1467.51 1316.35 C 1467.87 1317.04 1468.23 1317.73 1468.6 1318.42 C 1482.86 1347.26 1499.73 1377.49 1515.39 1405.72 C 1531.37 1434.54 1548.23 1472.76 1569.85 1496.74 C 1586.82 1515.69 1608.4 1529.94 1632.5 1538.09 C 1655.95 1546 1672.47 1548.03 1696.59 1548.46 L 1696.64 1567.86 C 1630.51 1567.32 1564.38 1567.21 1498.25 1567.53 L 1260.68 1567.29 L 1261.03 1551.35 C 1300.32 1549.8 1341.78 1537.15 1369.13 1507.63 C 1362 1493.71 1354.67 1479.9 1347.16 1466.18 L 1346.21 1465.06 C 1344.83 1461.4 1341.02 1454.36 1338.25 1451.54 C 1337.53 1440.83 1223.78 1238.15 1210.33 1209.52 C 1220.63 1204.12 1233.74 1193.44 1242.86 1185.68 C 1283.88 1150.78 1310.26 1118.82 1333.18 1070.18 z" fill="rgb(38,35,34)" transform="translate(0,0)"></path>
<path d="M 1025.06 389.347 L 1112.59 444.816 C 1101.49 445.228 1089.27 445.942 1078.26 445.903 C 1080.46 460.062 1083.3 485.342 1086.55 498.176 C 1091.91 497.997 1097.65 497.905 1102.97 497.616 C 1103.33 509.421 1103.78 521.223 1104.33 533.021 L 1090.03 533.123 C 1090.45 536.483 1091.44 542.742 1091.56 545.89 L 1092.34 548.853 L 1094.71 562.447 C 1118 566.483 1168.3 576.088 1190.01 585.789 C 1187.48 587.01 1176.88 582.533 1173.33 581.389 C 1147.78 573.165 1121.37 568.712 1095.07 563.778 C 1098.79 584.55 1102.71 605.285 1106.84 625.979 L 942.649 625.954 C 943.607 617.666 954.056 565.623 953.508 563.46 L 951.285 562.568 L 953.881 561.417 C 956.104 557.493 956.397 552.608 957.088 548.024 L 957.887 545.417 C 958.325 541.242 958.795 538.132 959.57 534.004 L 944.588 534.055 C 944.899 522.724 944.952 508.873 945.789 497.754 L 963.554 497.877 C 967.516 481.252 970.799 460.787 975.079 445.356 C 963.092 445.138 950.275 445.127 938.359 444.625 C 967.614 426.759 996.521 408.33 1025.06 389.347 z" fill="rgb(38,35,34)" transform="translate(0,0)"></path>
<path d="M 978.19 445.877 C 1009.43 446.56 1040.68 446.529 1071.92 445.785 C 1072.98 453.178 1079.89 494.394 1077 497.511 L 1072.89 497.495 C 1039.52 497.834 1006.15 497.802 972.783 497.398 C 975.999 483.316 977.626 460.341 978.19 445.877 z" fill="rgb(249,208,18)" transform="translate(0,0)"></path>
<path d="M 990.467 471.468 C 1013.48 471.384 1038.48 470.668 1061.45 472.038 C 1065.49 472.279 1063.77 484.958 1059.09 486.04 C 1034.48 486.027 1009.87 485.817 985.255 485.41 C 985.457 478.094 983.099 471.749 990.467 471.468 z" fill="rgb(255,255,255)" transform="translate(0,0)"></path>
<path d="M 949.619 644.319 C 955.26 645.433 990.275 645.03 997.621 645.031 L 1100.82 645.171 C 1107.27 659.229 1116.43 675.053 1123.93 688.955 L 1167.27 769.515 L 1242.47 909.589 C 1259.39 941.166 1276.6 974.954 1294.37 1005.78 C 1284.93 1027.52 1277.38 1049.29 1263.36 1068.66 C 1238.79 1102.63 1212.55 1131.15 1178.94 1156.09 C 1162.36 1123.94 1140.81 1086.98 1122.93 1054.91 L 1051.89 925.876 L 1025.15 877.999 C 1020.28 885.575 1014.35 897.157 1009.69 905.259 C 996.991 927.313 984.462 949.466 972.107 971.716 L 869.76 1154.99 C 839.218 1134.88 802.213 1095.28 782.538 1064.07 C 773.442 1049.64 760.754 1021.75 753.871 1005.64 L 880.385 772.293 C 902.691 730.794 926.167 684.664 949.619 644.319 z" fill="rgb(38,35,34)" transform="translate(0,0)"></path>
<path d="M 755.654 747.391 C 756.645 736.956 761.603 728.451 772.127 725.174 C 778.412 723.185 785.248 723.974 790.916 727.342 C 799.301 732.406 801.249 738.484 803.43 747.132 C 803.08 748.697 802.672 750.248 802.205 751.782 C 794.763 776.665 766.89 776.381 755.855 751.539 C 725.605 756.895 702.116 758.64 677.623 781.641 C 663.272 795.118 656.165 812.608 655.769 832.167 C 655.614 839.798 657.233 848.264 659.271 855.205 C 663.81 870.659 706.39 976.027 711.445 981.176 C 712.827 981.392 718.313 982.346 718.967 983.41 C 734.043 1007.93 743.586 1038.16 757.078 1062.93 C 809.097 1158.44 927.396 1232.42 1037.14 1224.34 C 1150.66 1215.98 1260.34 1139.97 1304.8 1034.78 C 1309.59 1023.59 1320.68 1010.7 1324.29 997.547 C 1325.27 993.952 1330.34 984.343 1332.89 981.397 C 1335.48 980.765 1335.72 980.722 1338.27 981.121 L 1340.24 981.448 C 1350.56 949.993 1366.86 918.383 1378.89 887.414 C 1390.5 857.551 1406.15 833.981 1389.72 801.895 C 1370.55 764.455 1335.45 756.924 1297.47 750.97 C 1291.82 765.033 1280.93 776.052 1264.82 768.874 C 1258.64 766.114 1253.86 760.941 1251.6 754.561 C 1242.55 728.34 1285.1 704.518 1297.77 747.203 C 1332.56 751.905 1360.68 755.079 1384.38 785.179 C 1395.43 799.211 1403.64 821.949 1400.93 839.624 C 1398.56 855.1 1386.92 879.925 1380.51 895.349 L 1351.95 964.174 C 1349.91 969.104 1343.38 980.409 1345.11 984.881 C 1349.68 989.129 1344.6 997.891 1341.76 1002.71 C 1333.73 1016.34 1330.45 1036.79 1323.75 1049.86 C 1296.69 1102.71 1257.44 1151.21 1208.52 1185.16 C 1188.26 1200.79 1163.83 1210.42 1144.57 1227.43 C 1087.85 1277.52 1036.87 1319.83 1036.96 1400.62 L 1047.52 1405.89 C 1065.73 1415.16 1079.86 1427.68 1086.2 1447.7 C 1091.24 1463.67 1089.64 1481 1081.76 1495.78 C 1052.95 1549.26 978.016 1541.94 961.017 1483.95 C 949.997 1446.36 975.938 1412.19 1012.73 1402.14 C 1012.75 1400.51 1012.77 1398.88 1012.81 1397.26 C 1013.55 1363.93 1018.81 1335.94 1037.92 1308.17 C 1055.44 1282.71 1074.53 1257.34 1096.87 1235.88 C 1045.79 1255.14 973.771 1248.11 923.111 1229.48 C 830.937 1195.59 766.582 1135.05 724.621 1046.6 C 720.497 1037.91 724.199 1036.85 721.506 1030.88 C 719.977 1026.16 702.726 995.922 703.298 992.8 C 706.537 975.136 700.754 971.549 693.306 953.745 C 684.457 932.457 675.732 911.117 667.131 889.728 C 652.748 853.658 640.814 821.546 666.875 786.829 C 689.451 756.753 720.671 752.151 755.654 747.391 z" fill="rgb(38,35,34)" transform="translate(0,0)"></path>
<path d="M 1016.43 1417.9 C 1043.05 1413.5 1068.26 1431.36 1072.94 1457.94 C 1077.61 1484.51 1060.02 1509.9 1033.49 1514.85 C 1016.08 1518.1 998.272 1511.75 986.848 1498.22 C 975.424 1484.69 972.148 1466.07 978.267 1449.46 C 984.387 1432.84 998.959 1420.79 1016.43 1417.9 z" fill="rgb(249,208,18)" transform="translate(0,0)"></path>
<path d="M 1019.22 1422.72 C 1043.24 1419.87 1065.03 1437.03 1067.88 1461.06 C 1070.72 1485.08 1053.56 1506.86 1029.54 1509.7 C 1005.52 1512.55 983.744 1495.39 980.895 1471.37 C 978.047 1447.35 995.206 1425.57 1019.22 1422.72 z" fill="rgb(38,35,34)" transform="translate(0,0)"></path>
<path d="M 1346.21 1465.06 L 1347.16 1466.18 C 1320.12 1484.84 1298.24 1501.23 1268.8 1517.25 C 1166.93 1572.87 1049.16 1592.14 934.871 1571.9 C 874.653 1560.88 813.494 1538.48 761.944 1505.84 C 748.963 1497.62 732.349 1488.99 721.012 1478.77 L 721.051 1477.77 C 723.938 1478.35 747.986 1495.26 752.804 1498.32 C 808.762 1533.84 871.68 1559.04 937.156 1570.39 C 1048.62 1589.69 1163.34 1571.31 1263.2 1518.16 C 1281.3 1508.64 1299 1496.47 1316.22 1485.37 C 1326.36 1478.84 1335.38 1470.59 1346.21 1465.06 z" fill="rgb(187,186,186)" transform="translate(0,0)"></path>
<path d="M 579.117 1317.83 C 487.579 1155.38 485.674 953.527 583.041 792.779 C 584.054 791.106 583.382 791.514 584.888 791.152 C 584.696 792.647 562.195 833.603 559.394 839.612 C 543.43 874.672 531.257 911.336 523.08 948.981 C 500.09 1052.99 513.782 1177.81 558.582 1274.57 C 564.612 1287.59 572.732 1305.14 580.556 1316.93 L 579.117 1317.83 z" fill="rgb(158,158,158)" transform="translate(0,0)"></path>
<path d="M 1456.71 780.062 C 1459.52 781.481 1464.78 791.271 1466.71 794.427 C 1550.14 931.033 1562.17 1108.58 1500.45 1255.96 C 1495.66 1267.41 1490.36 1278.89 1485.13 1290.19 C 1484.96 1289.54 1484.8 1288.9 1484.63 1288.25 C 1523.69 1207.11 1539.61 1128.93 1536.87 1038.5 C 1534.94 973.765 1520.54 910.011 1494.45 850.734 C 1485.11 829.671 1475 811.63 1463.03 791.962 C 1461.61 789.626 1456.55 781.984 1456.71 780.062 z" fill="rgb(158,158,158)" transform="translate(0,0)"></path>
<path d="M 957.088 548.024 C 939.901 548.901 907.943 556.108 891.255 560.73 C 795.532 587.217 709.33 640.415 642.735 714.1 C 629.245 729.017 616.774 744.824 605.406 761.415 C 602.608 765.45 589.151 787.016 586.827 789.255 L 586.237 788.081 C 587.425 785.442 588.338 783.739 589.899 781.323 C 658.946 673.117 765.42 594.126 888.999 559.427 C 916.105 551.622 931.98 551.123 956.867 545.648 L 957.887 545.417 L 957.088 548.024 z" fill="rgb(158,158,158)" transform="translate(0,0)"></path>
<path d="M 1091.56 545.89 C 1156.52 556.298 1215.85 572.99 1273.52 605.519 C 1277.62 607.832 1294.86 617.166 1296.03 620.31 C 1291.86 619.822 1268.13 604.532 1262.23 601.467 C 1216.06 577.497 1168.45 561.773 1117.5 551.538 C 1112.04 550.442 1096.76 547.542 1092.34 548.853 L 1091.56 545.89 z" fill="rgb(187,186,186)" transform="translate(0,0)"></path>
<path d="M 1339.01 650.164 C 1347.74 654.381 1358.53 664.818 1365.96 671.491 C 1395.28 697.823 1421.81 727.171 1444.22 759.622 C 1447.98 765.07 1454.98 774.007 1456.71 780.062 C 1453.38 778.343 1447.18 767.613 1444.43 763.604 C 1433.31 747.389 1421.36 731.762 1408.61 716.786 C 1394.54 700.431 1379.14 686.66 1363.41 672.076 C 1358.06 667.109 1341.83 654.269 1339.01 650.164 z" fill="rgb(187,186,186)" transform="translate(0,0)"></path>
<path d="M 1296.03 620.31 C 1302.45 622.583 1308.23 627.475 1313.89 631.202 L 1317.26 633.467 C 1322.54 637.111 1332.85 643.476 1336.65 648.337 L 1337.01 648.787 C 1330.85 646.572 1322.3 639.024 1316.36 635.35 L 1313.37 633.342 C 1308.93 630.326 1298.47 624.398 1296.03 620.31 z" fill="rgb(187,186,186)" transform="translate(0,0)"></path>
<path d="M 1467.51 1316.35 C 1471.47 1311.92 1482.47 1291.64 1483.56 1290.83 L 1484.01 1291.06 C 1484.31 1293.67 1470.88 1315.41 1468.6 1318.42 C 1468.23 1317.73 1467.87 1317.04 1467.51 1316.35 z" fill="rgb(187,186,186)" transform="translate(0,0)"></path>
<path d="M 706.017 1466.81 C 708.072 1466.62 708.705 1467.7 710.882 1469.19 L 713.81 1471.21 C 716.544 1473.33 718.203 1474.19 720.327 1476.87 L 721.051 1477.77 C 718.018 1476.87 706.889 1470.1 706.149 1467.29 L 706.017 1466.81 z" fill="rgb(187,186,186)" transform="translate(0,0)"></path>
<path d="M 1337.01 648.787 C 1338.71 648.55 1338.44 648.637 1339.01 650.164 C 1337.19 650.51 1336.96 650.772 1337.01 648.787 z" fill="rgb(187,186,186)" transform="translate(0,0)"></path>
<metadata><recraft-signature>{"signed_by": "recraft", "signature_b64": "TC04okvNf7zD2rj+y0X+jJpihjfaXC3FsvpLnTwi5p/xRJhPwv6NNtpExW4cpD0rEmbAeJ2oaVnx6l2blEeSAA==", "signing_algo": "Ed25519", "generation_timestamp": 1782263136, "identifier": "99d6bdb6-b432-4f8f-b302-fb0520cfdc74"}</recraft-signature></metadata></svg>